<?xml version="1.0" encoding="UTF-8" standalone="no"?>
<svg xmlns="http://www.w3.org/2000/svg" viewBox="52 42 88 88" version="1.1" width="88" height="88">
  <g transform="translate(0,11.00851)">
    <path fill="#4285f4" d="M 58,108 H 72 V 74 L 52,59 v 43 c 0,3.32 2.69,6 6,6"/>
    <path fill="#34a853" d="m 120,108 h 14 c 3.32,0 6,-2.69 6,-6 V 59 l -20,15"/>
    <path fill="#fbbc04" d="m 120,48 v 26 l 20,-15 v -8 c 0,-7.42 -8.47,-11.65 -14.4,-7.2"/>
    <path fill="#ea4335" d="M 72,74 V 48 L 96,66 120,48 V 74 L 96,92"/>
    <path fill="#c5221f" d="m 52,51 v 8 L 72,74 V 48 L 66.4,43.8 C 60.46,39.35 52,43.58 52,51"/>
  </g>
</svg>
